<?xml version="1.0" standalone="no"?>
<!DOCTYPE svg PUBLIC "-//W3C//DTD SVG 1.1//EN" "http://www.w3.org/Graphics/SVG/1.1/DTD/svg11.dtd" >
<svg xmlns="http://www.w3.org/2000/svg">
<metadata>
This is a custom SVG webfont generated by Font Squirrel.
Copyright   : Mandatory by Keith Bates is a full typeface based on the font used for UK vehicle registration plates but with improved M and W stem separation   KType Freebie  2004 2007   Version 303
</metadata>
<defs>
<font id="MandatoryRegular" horiz-adv-x="1249" >
<font-face units-per-em="2048" ascent="1638" descent="-410" />
<missing-glyph horiz-adv-x="675" />
<glyph unicode=" "  horiz-adv-x="675" />
<glyph unicode="&#x09;" horiz-adv-x="675" />
<glyph unicode="&#xa0;" horiz-adv-x="675" />
<glyph unicode="!" horiz-adv-x="512" d="M113 0v287h286v-287h-286zM113 430v1188h286v-1188h-286z" />
<glyph unicode="&#x22;" horiz-adv-x="817" d="M113 1618v229h229v-229l-61 -229h-107zM475 1618v229h230v-229l-62 -229h-106z" />
<glyph unicode="#" horiz-adv-x="1335" d="M113 502v205h245v202h-243v205h243v248h205v-248h207v246h205v-246h246v-205h-246v-202h248v-205h-248v-248h-205v248h-207v-246h-205v246h-245zM563 707h207v202h-207v-202z" />
<glyph unicode="$" d="M113 330l286 71q0 -115 109 -114h229q113 0 113 108v103q0 61 -19.5 88.5t-72.5 38.5l-373 73q-272 51 -272 328v268q0 139 73 228q84 96 224 96h114v143h205v-143h102q156 0 238 -105q68 -88 68 -227l-287 -74q0 63 -26.5 91t-94.5 28h-223q-106 0 -107 -102v-144 q0 -55 15 -75q20 -31 69 -39l385 -76q139 -27 204 -107.5t65 -236.5v-219q0 -150 -74 -236q-84 -96 -246 -96h-88v-147h-205v147h-108q-141 0 -222 89t-81 241z" />
<glyph unicode="%" horiz-adv-x="1878" d="M113 842v581q0 86 48 140.5t130 54.5h258q82 0 130 -54.5t48 -142.5v-577q0 -88 -48 -142.5t-130 -54.5h-258q-82 0 -130 54.5t-48 140.5zM285 877q0 -57 63 -58h146q61 0 61 58v512q0 57 -61 57h-146q-63 0 -63 -57v-512zM543 -145l577 1908h215l-581 -1908h-211z M1153 193v581q0 86 48 140.5t130 54.5h258q82 0 130 -54.5t48 -142.5v-577q0 -88 -48 -142.5t-130 -54.5h-258q-82 0 -130 54.5t-48 140.5zM1325 227q0 -57 64 -57h145q61 0 61 57v512q0 57 -61 58h-145q-63 0 -64 -58v-512z" />
<glyph unicode="&#x26;" horiz-adv-x="1382" d="M113 326v219q0 176 108 266q-109 84 -108 252v225q0 145 73 234q84 96 224 96h430q139 0 223 -96q72 -84 72 -199l-287 -76q0 33 -26.5 58.5t-57.5 25.5h-262q-102 0 -103 -96v-188q0 -96 99 -97h354v111h285v-111h133v-286h-133v-334q0 -139 -72 -230q-76 -94 -215 -100 h-440q-137 0 -217 91.5t-80 234.5zM399 381q0 -43 29 -68.5t70 -25.5h245q106 0 107 110v267h-352q-43 0 -71 -28t-28 -71v-184z" />
<glyph unicode="'" horiz-adv-x="454" d="M113 1618v229h229v-229l-61 -229h-107z" />
<glyph unicode="(" horiz-adv-x="409" d="M133 -43v1704q0 104 76 172q70 63 162 63h116v-143h-120q-41 0 -66 -25.5t-25 -62.5v-1704q0 -96 91 -96h120v-144h-116q-98 0 -168 69t-70 167z" />
<glyph unicode=")" horiz-adv-x="409" d="M-82 -135h121q90 0 90 96v1704q0 37 -24.5 62.5t-65.5 25.5h-121v143h117q92 0 164 -65q74 -66 73 -170v-1704q0 -98 -69.5 -167t-167.5 -69h-117v144z" />
<glyph unicode="*" horiz-adv-x="1075" d="M90 967l303 176l-303 176l72 123l303 -174v350h143v-350l305 174l72 -123l-305 -176l305 -176l-72 -123l-305 174v-350h-143v350l-303 -174z" />
<glyph unicode="+" horiz-adv-x="1126" d="M133 666v286h287v287h287v-287h286v-286h-286v-287h-287v287h-287z" />
<glyph unicode="," horiz-adv-x="454" d="M113 -229v516h286v-197l-204 -319h-82z" />
<glyph unicode="-" horiz-adv-x="798" d="M113 666v286h573v-286h-573z" />
<glyph unicode="." horiz-adv-x="512" d="M113 0v287h286v-287h-286z" />
<glyph unicode="/" horiz-adv-x="704" d="M-37 -145l578 1908h213l-580 -1908h-211z" />
<glyph unicode="0" d="M113 326v966q0 143 79.5 234.5t217.5 91.5h430q139 0 221 -94q76 -88 76 -234v-962q0 -145 -76 -234q-82 -94 -221 -94h-430q-137 0 -217 91.5t-80 234.5zM399 383q0 -96 105 -96h244q102 0 102 96v852q0 96 -102 96h-244q-104 0 -105 -96v-852z" />
<glyph unicode="1" horiz-adv-x="512" d="M113 0v1618h286v-1618h-286z" />
<glyph unicode="2" d="M113 0v264q0 164 176 297l514 389q47 35 47 90v189q0 102 -107 102h-223q-68 0 -94.5 -27.5t-26.5 -91.5l-286 74q0 139 67 227q82 104 238 105h422q139 0 223 -96q74 -88 74 -228v-243q0 -207 -152 -322l-586 -442h738v-287h-1024z" />
<glyph unicode="3" d="M113 1288q0 150 80.5 240t224.5 90h422q139 0 223 -96q74 -88 74 -234v-225q0 -168 -109 -252q109 -90 109 -266v-219q0 -143 -76 -232q-82 -94 -221 -94h-441q-139 6 -215 100q-72 90 -71 230l286 71q0 -115 107 -114h246q41 0 69.5 25.5t28.5 68.5v184q0 43 -27.5 71 t-70.5 28h-199v286h199q98 0 98 97v188q0 96 -102 96h-265q-86 0 -84 -117z" />
<glyph unicode="4" d="M113 344v287l553 987h286v-987h185v-287h-185v-344h-286v344h-553zM440 631h226v401z" />
<glyph unicode="5" d="M113 295l286 76q10 -84 105 -84h250q96 0 96 94v227q0 96 -102 97h-279q-59 0 -78 -66l-278 86l151 893h846v-287h-604l-57 -340h391q137 0 221 -96q76 -88 76 -231v-336q0 -143 -76 -232q-84 -96 -221 -96h-443q-127 6 -201.5 85t-82.5 210z" />
<glyph unicode="6" d="M113 322v974q0 143 79.5 232.5t217.5 89.5h421q143 0 228 -98q78 -90 78 -236l-287 -72q2 59 -27.5 89t-93.5 30h-223q-106 0 -107 -102v-277h422q143 0 228.5 -82t85.5 -221v-334q0 -141 -81 -228t-218 -87h-426q-137 0 -217 89.5t-80 232.5zM399 379q0 -41 28 -66.5 t69 -25.5h258q96 0 96 102v172q0 104 -96 105h-260q-41 0 -68 -28t-27 -71v-188z" />
<glyph unicode="7" d="M113 1331v287h1024l-529 -1618h-307l436 1331h-624z" />
<glyph unicode="8" d="M113 330v219q0 174 108 264q-109 84 -108 260v219q0 145 79.5 236.5t217.5 91.5h430q139 0 221 -94q76 -88 76 -234v-219q0 -176 -109 -260q109 -90 109 -264v-219q0 -145 -76 -234q-82 -94 -221 -94h-430q-137 0 -217 91.5t-80 236.5zM399 383q0 -96 103 -96h246 q102 0 102 96v184q0 43 -27.5 71t-70.5 28h-254q-43 0 -71 -28t-28 -71v-184zM399 1049q0 -96 99 -97h254q98 0 98 97v186q0 96 -102 96h-246q-102 0 -103 -96v-186z" />
<glyph unicode="9" d="M113 334l286 72q-2 -59 28 -89t93 -30h223q106 0 107 102v277h-422q-143 0 -228 81.5t-85 221.5v334q0 141 80.5 228t218.5 87h426q137 0 217 -89t80 -233v-974q0 -143 -80 -232.5t-217 -89.5h-422q-143 0 -228 98q-77 91 -77 236zM399 1057q0 -104 97 -105h260 q41 0 67.5 28t26.5 71v188q0 41 -27.5 66.5t-68.5 25.5h-258q-96 0 -97 -102v-172z" />
<glyph unicode=":" horiz-adv-x="512" d="M113 0v287h286v-287h-286zM113 666v286h286v-286h-286z" />
<glyph unicode=";" horiz-adv-x="512" d="M113 -229v516h286v-197l-204 -319h-82zM113 666v286h286v-286h-286z" />
<glyph unicode="&#x3c;" horiz-adv-x="1290" d="M133 586v295l1024 426v-314l-659 -262l659 -262v-311z" />
<glyph unicode="=" horiz-adv-x="1126" d="M133 379v287h860v-287h-860zM133 952v287h860v-287h-860z" />
<glyph unicode="&#x3e;" horiz-adv-x="1290" d="M133 158v311l660 262l-660 262v314l1024 -426v-295z" />
<glyph unicode="?" d="M113 1288q0 152 80.5 241t224.5 89h422q139 0 218 -92t79 -238v-287q0 -156 -81 -245.5t-222 -89.5h-46q-100 0 -100 -103v-133h-287v195q0 147 82 237t211 90h58q98 0 98 97v186q0 96 -102 96h-265q-86 0 -84 -117zM401 0v287h287v-287h-287z" />
<glyph unicode="@" horiz-adv-x="1515" d="M113 252v1116q0 106 71.5 178t175.5 72h783q98 0 168 -74q72 -76 71 -168v-774q0 -121 -71 -193q-70 -71 -177 -71h-6q-82 0 -135 47q-47 -47 -125 -47h-245q-80 0 -127 51t-47 133v195q0 82 50 130t132 48h248v162q0 59 -64 59h-131q-72 0 -70 -69l-168 40 q0 88 47.5 142.5t131.5 54.5h247q78 0 125 -53t47 -135v-484q0 -104 82 -106q88 0 88 106v676q0 66 -52 114t-124 48h-587q-74 0 -122 -51t-48 -129v-920q0 -86 48 -133t134 -47h866l2 -168h-971q-106 0 -176.5 72t-70.5 178zM614 565q0 -59 56 -59h151q57 0 58 53v111 q0 57 -56 57h-153q-55 0 -56 -61v-101z" />
<glyph unicode="A" d="M113 0l374 1618h273l377 -1618h-297l-62 270h-307l-61 -270h-297zM537 557h176l-88 383z" />
<glyph unicode="B" d="M113 2v287h71v1044h-71v287h727q139 0 221 -94q76 -88 76 -234v-219q0 -176 -109 -260q109 -90 109 -264v-219q0 -145 -76 -234q-82 -94 -221 -94h-727zM471 287h277q102 0 102 96v184q0 43 -27.5 71t-70.5 28h-281v-379zM471 952h281q98 0 98 97v186q0 96 -102 96h-277 v-379z" />
<glyph unicode="C" d="M113 326v966q0 143 79.5 234.5t217.5 91.5h421q145 0 225.5 -90t80.5 -242l-287 -74q2 59 -28.5 89t-92.5 30h-223q-106 0 -107 -102v-844q0 -98 107 -98h235q109 0 109 114l287 -71q0 -152 -81 -241t-222 -89h-420q-152 0 -232 102q-69 85 -69 224z" />
<glyph unicode="D" d="M113 0v287h71v1044h-71v287h727q139 0 221 -94q76 -88 76 -234v-962q0 -145 -76 -234q-82 -94 -221 -94h-727zM471 287h277q102 0 102 96v852q0 96 -102 96h-277v-1044z" />
<glyph unicode="E" d="M113 0v1618h1024v-287h-738v-379h451v-286h-451v-379h738v-287h-1024z" />
<glyph unicode="F" d="M113 0v1618h1024v-287h-738v-379h451v-286h-451v-666h-286z" />
<glyph unicode="G" d="M113 326v966q0 143 79.5 234.5t217.5 91.5h421q145 0 225.5 -90t80.5 -242l-287 -74q2 59 -28.5 89t-92.5 30h-223q-106 0 -107 -102v-846q0 -96 105 -96h244q102 0 102 98v150h-213v286h500v-493q0 -145 -76 -234q-82 -94 -221 -94h-430q-137 0 -217 91.5t-80 234.5z " />
<glyph unicode="H" d="M113 0v1618h286v-666h451v666h287v-1618h-287v666h-451v-666h-286z" />
<glyph unicode="I" horiz-adv-x="512" d="M113 0v1618h286v-1618h-286z" />
<glyph unicode="J" d="M113 330l286 71q0 -115 109 -114h229q113 0 113 114v1217h287v-1286q0 -160 -83 -246t-237 -86h-401q-145 0 -226 94q-77 91 -77 236z" />
<glyph unicode="K" d="M113 0v1618h286v-764l426 625q25 37 25 80v59h287v-109q0 -80 -56 -163l-360 -537l360 -537q55 -84 56 -163v-109h-287v59q0 43 -25 80l-290 432l-136 -202v-369h-286z" />
<glyph unicode="L" d="M113 0v1618h286v-1331h738v-287h-1024z" />
<glyph unicode="M" d="M113 0v1618h286l226 -588l225 588h287v-1618h-287v815l-225 -582l-226 580v-813h-286z" />
<glyph unicode="N" d="M113 0v1618h270l467 -936v936h287v-1618h-269l-469 938v-938h-286z" />
<glyph unicode="O" d="M113 326v966q0 143 79.5 234.5t217.5 91.5h430q139 0 221 -94q76 -88 76 -234v-962q0 -145 -76 -234q-82 -94 -221 -94h-430q-137 0 -217 91.5t-80 234.5zM399 383q0 -96 105 -96h244q102 0 102 96v852q0 96 -102 96h-244q-104 0 -105 -96v-852z" />
<glyph unicode="P" d="M113 0v1618h723q154 0 233 -107q68 -90 68 -213v-327q0 -131 -80 -215q-84 -90 -236 -90h-422v-666h-286zM399 952h355q98 0 96 105v172q0 102 -96 102h-355v-379z" />
<glyph unicode="Q" d="M113 367v925q0 143 79.5 234.5t217.5 91.5h430q139 0 221 -94q76 -88 76 -234v-921q0 -158 -88 -248l88 -121h-246l-31 41h-20h-430q-137 0 -217 91.5t-80 234.5zM399 424q0 -96 105 -96h147l-174 239h248l125 -174v842q0 96 -102 96h-244q-104 0 -105 -96v-811z" />
<glyph unicode="R" d="M113 0v1618h718q152 0 236 -105q70 -84 70 -217v-327q0 -137 -86 -221q-70 -63 -164 -78l250 -670h-308l-245 666h-185v-666h-286zM399 952h355q96 0 96 105v172q0 102 -96 102h-355v-379z" />
<glyph unicode="S" d="M113 330l286 71q0 -115 109 -114h229q113 0 113 108v103q0 61 -18.5 86.5t-73.5 40.5l-373 73q-272 70 -272 328v268q0 141 79.5 232.5t217.5 91.5h421q156 0 238 -105q68 -88 68 -227l-287 -74q0 63 -26.5 91t-94.5 28h-223q-106 0 -107 -102v-144q0 -51 17.5 -75.5 t66.5 -38.5l385 -76q137 -33 199 -107q70 -82 70 -237v-219q0 -150 -74 -236q-84 -96 -246 -96h-401q-141 0 -222 89t-81 241z" />
<glyph unicode="T" d="M113 1331v287h1024v-287h-369v-1331h-287v1331h-368z" />
<glyph unicode="U" d="M113 326v1292h286v-1235q0 -96 105 -96h244q102 0 102 96v1235h287v-1290q0 -147 -81 -237.5t-216 -90.5h-430q-135 0 -216 89.5t-81 236.5z" />
<glyph unicode="V" d="M113 1618h297l215 -940l215 940h297l-377 -1618h-273z" />
<glyph unicode="W" d="M113 1618h288l50 -856l174 516l178 -516l49 856h285l-90 -1618h-289l-133 383l-131 -383h-289z" />
<glyph unicode="X" d="M113 1477v141h286v-96q0 -35 21 -70l205 -354l206 356q18 33 19 66v98h287v-133q0 -78 -35 -137l-316 -537l318 -541q33 -72 33 -139v-131h-287v98q0 33 -19 64l-206 364l-201 -354q-20 -37 -23 -76v-96h-286v141q0 74 39 138l309 534l-313 533q-37 63 -37 131z" />
<glyph unicode="Y" d="M113 1481v137h286v-105q0 -31 13 -59l213 -475l217 481q8 23 8 53v105h287v-139q0 -61 -31 -131l-338 -752v-596h-287v596l-340 758q-28 68 -28 127z" />
<glyph unicode="Z" d="M113 0v307l706 1024h-706v289l1024 -2v-328l-693 -1003h693v-287h-1024z" />
<glyph unicode="[" horiz-adv-x="409" d="M133 -279v2175h354v-143h-211v-1888h211v-144h-354z" />
<glyph unicode="\" horiz-adv-x="704" d="M-41 1763h215l578 -1908h-211z" />
<glyph unicode="]" horiz-adv-x="409" d="M-80 -135h211v1888h-211v143h354v-2175h-354v144z" />
<glyph unicode="^" horiz-adv-x="1255" d="M113 739l407 772h213l410 -772h-293l-232 410l-217 -410h-288z" />
<glyph unicode="_" d="M0 -186h1249v-144h-1249v144z" />
<glyph unicode="`" d="M356 2021h351l167 -299h-194z" />
<glyph unicode="a" horiz-adv-x="999" d="M90 0l299 1294h219l301 -1294h-237l-49 217h-246l-49 -217h-238zM430 446h139l-69 306z" />
<glyph unicode="b" horiz-adv-x="999" d="M90 2v229h57v836h-57v229h582q111 0 174 -72.5t63 -189.5v-176q0 -141 -86 -207q86 -74 86 -213v-174q0 -117 -63.5 -189.5t-173.5 -72.5h-582zM377 229h221q82 0 82 78v148q0 78 -78 77h-225v-303zM377 762h225q78 0 78 78v147q0 78 -82 78h-221v-303z" />
<glyph unicode="c" horiz-adv-x="999" d="M90 260v774q0 115 64.5 187.5t173.5 72.5h338q115 0 179 -72.5t64 -193.5l-229 -57q0 94 -96 94h-178q-86 0 -87 -82v-676q0 -78 87 -78h188q86 0 86 93l229 -58q0 -121 -64.5 -192.5t-176.5 -71.5h-336q-123 0 -187 82q-55 69 -55 178z" />
<glyph unicode="d" horiz-adv-x="999" d="M90 0v229h57v836h-57v229h582q111 0 174 -72.5t63 -189.5v-770q0 -117 -63.5 -189.5t-173.5 -72.5h-582zM377 229h221q82 0 82 78v680q0 78 -82 78h-221v-836z" />
<glyph unicode="e" horiz-adv-x="999" d="M90 0v1294h819v-229h-590v-303h361v-230h-361v-303h590v-229h-819z" />
<glyph unicode="f" horiz-adv-x="999" d="M90 0v1294h819v-229h-590v-303h361v-230h-361v-532h-229z" />
<glyph unicode="g" horiz-adv-x="999" d="M90 260v774q0 115 64.5 187.5t173.5 72.5h338q115 0 179 -72.5t64 -193.5l-229 -57q0 94 -96 94h-178q-86 0 -87 -82v-676q0 -78 84 -78h195q82 0 82 78v121h-170v229h399v-395q0 -117 -63.5 -189.5t-173.5 -72.5h-344q-111 0 -174.5 72.5t-63.5 187.5z" />
<glyph unicode="h" horiz-adv-x="999" d="M90 0v1294h229v-532h361v532h229v-1294h-229v532h-361v-532h-229z" />
<glyph unicode="i" horiz-adv-x="409" d="M90 0v1294h229v-1294h-229z" />
<glyph unicode="j" horiz-adv-x="999" d="M90 264l229 58q0 -92 87 -93h184q90 0 90 93v972h229v-1028q0 -266 -256 -266h-321q-117 0 -180 76q-62 71 -62 188z" />
<glyph unicode="k" horiz-adv-x="999" d="M90 0v1294h229v-612l340 502q20 27 21 63v47h229v-86q0 -68 -45 -131l-286 -430l286 -430q45 -63 45 -131v-86h-229v47q0 37 -21 64l-231 346l-109 -162v-295h-229z" />
<glyph unicode="l" horiz-adv-x="999" d="M90 0v1294h229v-1065h590v-229h-819z" />
<glyph unicode="m" horiz-adv-x="999" d="M90 0v1294h229l181 -471l180 471h229v-1294h-229v651l-180 -465l-181 465v-651h-229z" />
<glyph unicode="n" horiz-adv-x="999" d="M90 0v1294h217l373 -747v747h229v-1294h-215l-375 750v-750h-229z" />
<glyph unicode="o" horiz-adv-x="999" d="M90 260v774q0 115 63.5 187.5t174.5 72.5h344q111 0 174 -72.5t63 -189.5v-770q0 -117 -63.5 -189.5t-173.5 -72.5h-344q-111 0 -174.5 72.5t-63.5 187.5zM319 307q0 -78 84 -78h195q82 0 82 78v680q0 78 -82 78h-195q-84 0 -84 -78v-680z" />
<glyph unicode="p" horiz-adv-x="999" d="M90 0v1294h578q123 0 188 -86q53 -72 53 -170v-262q0 -109 -66.5 -176.5t-185.5 -67.5h-338v-532h-229zM319 762h283q82 0 78 84v137q0 82 -78 82h-283v-303z" />
<glyph unicode="q" horiz-adv-x="999" d="M90 293v741q0 115 63.5 187.5t174.5 72.5h344q111 0 174 -72.5t63 -189.5v-737q0 -125 -71 -197l71 -98h-196l-25 33h-16h-344q-111 0 -174.5 72.5t-63.5 187.5zM319 340q0 -78 84 -78h119l-141 193h199l100 -140v672q0 78 -82 78h-195q-84 0 -84 -78v-647z" />
<glyph unicode="r" horiz-adv-x="999" d="M90 0v1294h576q123 0 188 -84q55 -72 55 -174v-262q0 -113 -69 -176q-51 -49 -131 -61l200 -537h-245l-197 532h-148v-532h-229zM319 762h283q78 0 78 84v137q0 82 -78 82h-283v-303z" />
<glyph unicode="s" horiz-adv-x="999" d="M90 264l229 58q0 -92 87 -93h184q90 0 90 86v82q0 84 -74 103l-299 59q-217 57 -217 262v215q0 109 60 181q66 78 178 77h338q123 0 188 -84q55 -72 55 -182l-229 -57q0 94 -96 94h-178q-86 0 -87 -82v-115q0 -70 68 -92l307 -59q111 -29 160 -86q55 -66 55 -191v-174 q0 -266 -256 -266h-321q-113 0 -177.5 71.5t-64.5 192.5z" />
<glyph unicode="t" horiz-adv-x="999" d="M90 1065v229h819v-229h-295v-1065h-229v1065h-295z" />
<glyph unicode="u" horiz-adv-x="999" d="M90 260v1034h229v-987q0 -78 84 -78h195q82 0 82 78v987h229v-1032q0 -119 -64.5 -190.5t-172.5 -71.5h-344q-109 0 -173.5 71.5t-64.5 188.5z" />
<glyph unicode="v" horiz-adv-x="999" d="M90 1294h238l172 -751l172 751h237l-301 -1294h-219z" />
<glyph unicode="w" horiz-adv-x="999" d="M90 1294h232l38 -684l140 412l143 -412l39 684h227l-71 -1294h-232l-106 307l-105 -307h-231z" />
<glyph unicode="x" horiz-adv-x="999" d="M90 1182v112h229v-77q0 -23 17 -56l164 -282l166 284q14 27 14 54v77h229v-106q0 -63 -26 -111l-254 -428l254 -432q27 -55 26 -113v-104h-229v78q0 29 -14 51l-166 293l-162 -285q-12 -20 -16 -59v-78h-230v113q0 59 31 110l248 428l-250 426q-31 50 -31 105z" />
<glyph unicode="y" horiz-adv-x="999" d="M90 1184v110h229v-84q0 -23 11 -47l170 -381l172 385q8 18 8 43v84h229v-110q0 -49 -24 -107l-271 -600v-477h-229v477l-272 606q-23 56 -23 101z" />
<glyph unicode="z" horiz-adv-x="999" d="M90 0v246l565 819h-565v229h819v-262l-553 -803h553v-229h-819z" />
<glyph unicode="{" horiz-adv-x="409" d="M0 731v146q11 -1 21 -1q113 0 112 107v678q0 104 76 172q70 63 162 63h116v-143h-120q-41 0 -66 -25.5t-25 -62.5v-719q0 -86 -63 -141q63 -57 63 -152v-692q0 -96 91 -96h120v-144h-116q-98 0 -168 69t-70 167v664q0 112 -110 111q-11 0 -23 -1z" />
<glyph unicode="|" horiz-adv-x="368" d="M113 -147v1910h143v-1910h-143z" />
<glyph unicode="}" horiz-adv-x="409" d="M-76 -135h121q90 0 90 96v692q0 94 64 152q-63 55 -64 141v719q0 37 -24.5 62.5t-65.5 25.5h-121v143h117q92 0 164 -65q74 -66 74 -170v-678q0 -107 112 -107q10 0 21 1v-146q-12 1 -23 1q-110 0 -110 -111v-664q0 -98 -70 -167t-168 -69h-117v144z" />
<glyph unicode="~" horiz-adv-x="1247" d="M113 518v293q152 137 313 137q80 0 227 -71q141 -70 213 -70q117 0 269 139v-291q-170 -137 -295 -137q-88 0 -235.5 72t-207.5 72q-139 -1 -284 -144z" />
<glyph unicode="&#xa1;" horiz-adv-x="512" d="M113 0v1188h286v-1188h-286zM113 1331v287h286v-287h-286z" />
<glyph unicode="&#xa2;" horiz-adv-x="794" d="M90 842v581q0 86 48 140.5t130 54.5h68v88h125v-88h61q86 0 134.5 -54.5t48.5 -144.5l-173 -45q0 72 -71 72h-135q-63 0 -64 -62v-505q0 -59 64 -60h141q66 0 65 70l173 -43q0 -92 -48.5 -145.5t-134.5 -53.5h-61v-88h-125v88h-66q-90 0 -139 62q-41 53 -41 133z" />
<glyph unicode="&#xa3;" d="M113 0v287h133v379h-133v286h133v340q0 145 81 235.5t220 90.5h287q143 0 223 -90t80 -240l-287 -71q4 115 -109 114h-102q-106 0 -107 -98v-281h205v-286h-205v-379h603v-287h-1022z" />
<glyph unicode="&#xa4;" horiz-adv-x="1269" d="M61 520v185h134v163h-134v185h134v239q0 143 80.5 234.5t216.5 91.5h665l-131 -287h-438q-106 0 -107 -102v-176h420l-84 -185h-336v-163h262l-84 -185h-178v-135q0 -98 107 -98h174q113 0 108 114l287 -71q0 -145 -78 -236q-80 -94 -225 -94h-358q-141 0 -221 89 t-80 237v194h-134z" />
<glyph unicode="&#xa5;" d="M113 1481v137h286v-105q0 -31 13 -59l206 -461h13l211 467q8 18 8 53v105h287v-139q0 -61 -31 -131l-160 -355h191v-184h-273l-84 -184h357v-185h-369v-440h-287v440h-364v185h352l-84 184h-268v184h186l-162 361q-28 68 -28 127z" />
<glyph unicode="&#xa6;" horiz-adv-x="368" d="M113 -147v813h143v-813h-143zM113 952v811h143v-811h-143z" />
<glyph unicode="&#xa7;" horiz-adv-x="1001" d="M90 41l229 57q0 -92 87 -92h184q70 0 86 53q4 20 4 115q0 88 -74 102l-299 60q-98 18 -157.5 87t-59.5 167v223q0 100 49 172q-49 63 -49 162v215q0 115 64.5 186.5t173.5 71.5h338q115 0 179 -72.5t64 -193.5l-229 -58q0 94 -96 95h-178q-88 0 -89 -113v-43q2 -18 2 -41 q0 -76 68 -92l307 -60q162 -35 203 -165q12 -49 12 -285q0 -117 -51 -189q43 -55 53 -176l-2 -184q0 -266 -256 -266h-321q-117 0 -180 76q-62 69 -62 188zM319 645q-1 -10 -1 -19q0 -16 5 -27q7 -17 26.5 -27.5t39 -16.5t57 -13t62.5 -16q59 -14 102 -14q70 0 70 88v123 q0 88 -74 102l-207 41q-80 0 -80 -82v-139z" />
<glyph unicode="&#xa8;" d="M311 1720v250h260v-250h-260zM735 1720v250h262v-250h-262z" />
<glyph unicode="&#xa9;" horiz-adv-x="1662" d="M68 809q0 9 -1 18q0 140 59 274q62 142 166.5 246.5t247.5 166.5q134 59 273 59h18q205 0 381 -103q178 -104 279 -278q104 -178 104 -383q0 -7 1 -15q0 -190 -101 -363q-104 -179 -284 -284q-172 -101 -364 -100h-16h-18q-140 0 -273 57q-142 61 -247 165t-167 247 q-59 135 -59 275q1 9 1 18zM215 809q0 -256 178 -436q180 -178 438 -178q256 0 435 178q180 180 180 436q0 258 -180 436q-178 180 -435 180q-258 0 -438 -180q-178 -178 -178 -436zM516 514v588q0 88 49 143t133 55h256q88 0 140 -57q45 -51 45 -145l-174 -43 q2 35 -16.5 53t-57.5 18h-135q-63 0 -64 -63v-512q0 -59 64 -59h143q66 0 66 69l174 -43q0 -94 -48.5 -147.5t-136.5 -53.5h-254q-92 0 -141 62q-43 51 -43 135z" />
<glyph unicode="&#xaa;" horiz-adv-x="563" d="M68 762v117h428v-117h-428zM76 971l149 647h109l151 -647h-118l-25 108h-123l-24 -108h-119zM246 1194h69l-34 154z" />
<glyph unicode="&#xab;" horiz-adv-x="1290" d="M68 662l278 462h332l-277 -462l277 -461h-332zM612 662l279 462h332l-277 -462l277 -463h-332z" />
<glyph unicode="&#xac;" d="M113 846v287h1024v-740h-287v453h-737z" />
<glyph unicode="&#xad;" horiz-adv-x="1085" d="M113 666v286h860v-286h-860z" />
<glyph unicode="&#x2212;" horiz-adv-x="1085" d="M113 666v286h860v-286h-860z" />
<glyph unicode="&#xae;" horiz-adv-x="1662" d="M68 809q0 9 -1 18q0 140 59 274q62 142 166.5 246.5t247.5 166.5q134 59 273 59h18q205 0 381 -103q178 -104 279 -278q104 -178 104 -383q0 -7 1 -15q0 -190 -101 -363q-104 -179 -284 -284q-172 -101 -364 -100h-16h-18q-140 0 -273 57q-142 61 -247 165t-167 247 q-59 135 -59 275q1 9 1 18zM215 809q0 -256 178 -436q180 -178 438 -178q256 0 435 178q180 180 180 436q0 258 -180 436q-178 180 -435 180q-258 0 -438 -180q-178 -178 -178 -436zM532 326v970h431q94 0 143 -61q41 -53 41 -131v-197q0 -156 -152 -180l152 -401h-184 l-148 399h-110v-399h-173zM705 897h210q59 0 60 64v102q0 61 -60 61h-210v-227z" />
<glyph unicode="&#xaf;" d="M311 1724v218h647v-218h-647z" />
<glyph unicode="&#x2c9;" d="M311 1724v218h647v-218h-647z" />
<glyph unicode="&#xb0;" horiz-adv-x="856" d="M113 1302.5q0 131.5 92 223.5t223 92t223 -92q92 -88 92 -223q0 -131 -92 -223.5t-223 -92.5t-223 92t-92 223.5zM301 1305q0 -53 37 -90t90 -37t90 36.5t37 90.5q0 51 -37 89t-90 38t-90 -38t-37 -89z" />
<glyph unicode="&#xb1;" horiz-adv-x="1126" d="M133 952v287h287v287h287v-287h286v-287h-286v-286h-287v286h-287zM135 92v287h860v-287h-860z" />
<glyph unicode="&#xb2;" horiz-adv-x="839" d="M113 647v170q0 86 106 166l307 234q29 23 29 55v112q0 61 -63 62h-136q-72 0 -71 -72l-172 45q0 82 41 135q49 63 141 64h254q82 0 130 -54.5t48 -140.5v-157q0 -113 -100 -189l-342 -258h442v-172h-614z" />
<glyph unicode="&#xb3;" horiz-adv-x="839" d="M113 846l172 43q0 -70 63 -70h148q59 0 59 58v110q0 59 -59 60h-119v172h119q59 0 59 57v113q0 57 -61 57h-158q-53 0 -51 -70l-172 45q0 88 49 142.5t133 54.5h254q84 0 131 -54.5t47 -142.5v-135q0 -102 -65 -151q66 -53 65 -160v-131q0 -88 -48 -142.5t-130 -54.5 h-264q-84 4 -129 62q-43 53 -43 137z" />
<glyph unicode="&#xb4;" d="M418 1722l168 299h350l-324 -299h-194z" />
<glyph unicode="&#xb5;" horiz-adv-x="999" d="M90 -430v1724h229v-987q0 -78 84 -78h195q82 0 82 78v987h229v-1032q0 -117 -63.5 -189.5t-173.5 -72.5h-353v-430h-229z" />
<glyph unicode="&#x3bc;" horiz-adv-x="999" d="M90 -430v1724h229v-987q0 -78 84 -78h195q82 0 82 78v987h229v-1032q0 -117 -63.5 -189.5t-173.5 -72.5h-353v-430h-229z" />
<glyph unicode="&#xb6;" d="M113 971v327q0 123 67 213q80 106 234 107h723v-1618h-287v666h-102v-666h-99v666h-221q-152 0 -235 90q-80 84 -80 215zM399 1057q0 -104 97 -105h153v379h-153q-96 0 -97 -102v-172zM748 952h102v379h-102v-379z" />
<glyph unicode="&#xb7;" horiz-adv-x="512" d="M113 666v286h286v-286h-286z" />
<glyph unicode="&#x2219;" horiz-adv-x="512" d="M113 666v286h286v-286h-286z" />
<glyph unicode="&#xb8;" d="M479 -338q61 0 125 2q94 2 94 76q0 76 -87 76h-9h-55v2v184h92v-94q233 -2 233 -172q0 -166 -237 -166h-156v92z" />
<glyph unicode="&#xb9;" horiz-adv-x="397" d="M113 647v971h172v-971h-172z" />
<glyph unicode="&#xba;" horiz-adv-x="563" d="M68 762v117h428v-117h-428zM78 1102v385q0 131 119 131h172q119 0 118 -131v-385q0 -131 -118 -131h-172q-119 0 -119 131zM193 1124q0 -39 40 -39h99q41 0 41 39v340q0 39 -41 39h-99q-41 0 -40 -39v-340z" />
<glyph unicode="&#xbb;" horiz-adv-x="1290" d="M68 199l276 463l-276 462h331l279 -462l-279 -463h-331zM612 201l277 461l-277 462h332l279 -462l-279 -461h-332z" />
<glyph unicode="&#xbc;" horiz-adv-x="1476" d="M113 647v971h172v-971h-172zM203 -145l577 1908h215l-581 -1908h-211zM750 207v172l331 592h172v-592h111v-172h-111v-207h-172v207h-331zM946 379h135v239z" />
<glyph unicode="&#xbd;" horiz-adv-x="1599" d="M113 647v971h172v-971h-172zM203 -145l577 1908h215l-581 -1908h-211zM872 0v170q0 86 107 166l307 233q29 23 29 56v112q0 61 -64 62h-135q-72 0 -72 -72l-172 45q0 82 41 135q49 63 142 64h254q82 0 130 -54.5t48 -140.5v-158q0 -113 -101 -188l-342 -258h443v-172 h-615z" />
<glyph unicode="&#xbe;" horiz-adv-x="1861" d="M113 846l172 43q0 -70 63 -70h148q59 0 59 58v110q0 59 -59 60h-119v172h119q59 0 59 57v113q0 57 -61 57h-158q-53 0 -51 -70l-172 45q0 88 49 142.5t133 54.5h254q84 0 131 -54.5t47 -142.5v-135q0 -102 -65 -151q66 -53 65 -160v-131q0 -88 -48 -142.5t-130 -54.5 h-264q-84 4 -129 62q-43 53 -43 137zM588 -145l579 1908h213l-581 -1908h-211zM1135 207v172l331 592h172v-592h111v-172h-111v-207h-172v207h-331zM1331 379h135v239z" />
<glyph unicode="&#xbf;" d="M113 330v286q0 156 80.5 246t222.5 90h45q100 0 100 103v133h287v-195q0 -147 -82 -237t-211 -90h-57q-98 0 -99 -97v-186q0 -96 103 -96h264q86 0 84 116l287 -73q0 -152 -81 -241t-225 -89h-421q-139 0 -224 96q-73 89 -73 234zM561 1331v287h287v-287h-287z" />
<glyph unicode="&#xc0;" d="M113 0l374 1618h273l377 -1618h-297l-62 270h-307l-61 -270h-297zM336 2021h350l168 -299h-195zM537 557h176l-88 383z" />
<glyph unicode="&#xc1;" d="M113 0l374 1618h273l377 -1618h-297l-62 270h-307l-61 -270h-297zM397 1722l168 299h350l-323 -299h-195zM537 557h176l-88 383z" />
<glyph unicode="&#xc2;" d="M113 0l374 1618h273l377 -1618h-297l-62 270h-307l-61 -270h-297zM264 1722l228 287h290l222 -287h-248l-123 154l-121 -154h-248zM537 557h176l-88 383z" />
<glyph unicode="&#xc3;" d="M113 0l374 1618h273l377 -1618h-297l-62 270h-307l-61 -270h-297zM276 1722v43q0 125 45.5 179.5t153.5 54.5q57 0 154 -43q98 -43 143 -43q68 0 68 86h159v-45q0 -125 -45 -179.5t-155 -54.5q-55 0 -160 41q-98 41 -133 45q-72 0 -72 -84h-158zM537 557h176l-88 383z " />
<glyph unicode="&#xc4;" d="M113 0l374 1618h273l377 -1618h-297l-62 270h-307l-61 -270h-297zM291 1720v250h260v-250h-260zM537 557h176l-88 383zM715 1720v250h262v-250h-262z" />
<glyph unicode="&#xc5;" d="M113 0l374 1618h273l377 -1618h-297l-62 270h-307l-61 -270h-297zM395 1968q0 98 66 170q68 72 166 72q96 0 162.5 -71t66.5 -171t-65.5 -169.5t-164 -69.5t-165 70.5t-66.5 168.5zM512 1970q0 -49 33 -84t82 -35q47 0 79.5 35t32.5 84q0 47 -32.5 82t-79.5 35 q-49 0 -82 -34t-33 -83zM537 557h176l-88 383z" />
<glyph unicode="&#xc6;" horiz-adv-x="1630" d="M113 0l374 1618h1029v-287h-689l88 -381l314 2v-286h-248l88 -377l449 -2v-287h-678l-62 270h-307l-61 -270h-297zM537 557h176l-88 383z" />
<glyph unicode="&#xc7;" d="M113 326v966q0 143 79.5 234.5t217.5 91.5h421q145 0 225.5 -90t80.5 -242l-287 -74q2 59 -28.5 89t-92.5 30h-223q-106 0 -107 -102v-844q0 -98 107 -98h235q109 0 109 114l287 -71q0 -152 -81 -241t-222 -89h-216v-92q233 -2 234 -172q0 -166 -238 -166h-155v92 q61 0 125 2q94 2 94 76q0 76 -87 76h-9h-56v2v182h-112q-152 0 -232 102q-69 85 -69 224z" />
<glyph unicode="&#xc8;" d="M113 0v1618h1024v-287h-738v-379h451v-286h-451v-379h738v-287h-1024zM356 2021h351l167 -299h-194z" />
<glyph unicode="&#xc9;" d="M113 0v1618h1024v-287h-738v-379h451v-286h-451v-379h738v-287h-1024zM418 1722l168 299h350l-324 -299h-194z" />
<glyph unicode="&#xca;" d="M113 0v1618h1024v-287h-738v-379h451v-286h-451v-379h738v-287h-1024zM285 1722l227 287h291l221 -287h-248l-123 154l-121 -154h-247z" />
<glyph unicode="&#xcb;" d="M113 0v1618h1024v-287h-738v-379h451v-286h-451v-379h738v-287h-1024zM311 1720v250h260v-250h-260zM735 1720v250h262v-250h-262z" />
<glyph unicode="&#xcc;" horiz-adv-x="552" d="M-51 2019h350l168 -299h-195zM133 0v1618h287v-1618h-287z" />
<glyph unicode="&#xcd;" horiz-adv-x="552" d="M29 1722l168 299h350l-324 -299h-194zM133 0v1618h287v-1618h-287z" />
<glyph unicode="&#xce;" horiz-adv-x="552" d="M-84 1722l227 287h291l221 -287h-247l-123 154l-121 -154h-248zM133 0v1618h287v-1618h-287z" />
<glyph unicode="&#xcf;" horiz-adv-x="552" d="M-57 1720v250h260v-250h-260zM133 0v1618h287v-1618h-287zM367 1720v250h262v-250h-262z" />
<glyph unicode="&#xd0;" d="M113 0v287h71v379h-71v286h71v379h-71v287h727q139 0 221 -94q76 -88 76 -234v-962q0 -145 -76 -234q-82 -94 -221 -94h-727zM471 287h277q102 0 102 96v852q0 96 -102 96h-277v-379h74v-286h-74v-379z" />
<glyph unicode="&#xd1;" d="M113 0v1618h270l467 -936v936h287v-1618h-269l-469 938v-938h-286zM276 1722v43q0 125 45.5 179.5t153.5 54.5q57 0 154 -43q98 -43 143 -43q68 0 68 86h159v-45q0 -125 -45 -179.5t-155 -54.5q-55 0 -160 41q-98 41 -133 45q-72 0 -72 -84h-158z" />
<glyph unicode="&#xd2;" d="M113 326v966q0 143 79.5 234.5t217.5 91.5h430q139 0 221 -94q76 -88 76 -234v-962q0 -145 -76 -234q-82 -94 -221 -94h-430q-137 0 -217 91.5t-80 234.5zM336 2021h350l168 -299h-195zM399 383q0 -96 105 -96h244q102 0 102 96v852q0 96 -102 96h-244q-104 0 -105 -96 v-852z" />
<glyph unicode="&#xd3;" d="M113 326v966q0 143 79.5 234.5t217.5 91.5h430q139 0 221 -94q76 -88 76 -234v-962q0 -145 -76 -234q-82 -94 -221 -94h-430q-137 0 -217 91.5t-80 234.5zM397 1722l168 299h350l-323 -299h-195zM399 383q0 -96 105 -96h244q102 0 102 96v852q0 96 -102 96h-244 q-104 0 -105 -96v-852z" />
<glyph unicode="&#xd4;" d="M113 326v966q0 143 79.5 234.5t217.5 91.5h430q139 0 221 -94q76 -88 76 -234v-962q0 -145 -76 -234q-82 -94 -221 -94h-430q-137 0 -217 91.5t-80 234.5zM264 1722l228 287h290l222 -287h-248l-123 154l-121 -154h-248zM399 383q0 -96 105 -96h244q102 0 102 96v852 q0 96 -102 96h-244q-104 0 -105 -96v-852z" />
<glyph unicode="&#xd5;" d="M113 326v966q0 143 79.5 234.5t217.5 91.5h430q139 0 221 -94q76 -88 76 -234v-962q0 -145 -76 -234q-82 -94 -221 -94h-430q-137 0 -217 91.5t-80 234.5zM276 1722v43q0 125 45.5 179.5t153.5 54.5q57 0 154 -43q98 -43 143 -43q68 0 68 86h159v-45q0 -125 -45 -179.5 t-155 -54.5q-55 0 -160 41q-98 41 -133 45q-72 0 -72 -84h-158zM399 383q0 -96 105 -96h244q102 0 102 96v852q0 96 -102 96h-244q-104 0 -105 -96v-852z" />
<glyph unicode="&#xd6;" d="M113 326v966q0 143 79.5 234.5t217.5 91.5h430q139 0 221 -94q76 -88 76 -234v-962q0 -145 -76 -234q-82 -94 -221 -94h-430q-137 0 -217 91.5t-80 234.5zM291 1720v250h260v-250h-260zM399 383q0 -96 105 -96h244q102 0 102 96v852q0 96 -102 96h-244q-104 0 -105 -96 v-852zM715 1720v250h262v-250h-262z" />
<glyph unicode="&#xd7;" horiz-adv-x="1118" d="M154 403l262 406l-262 405h286l119 -184l119 184h287l-260 -405l260 -406h-287l-119 183l-117 -183h-288z" />
<glyph unicode="&#xd8;" d="M113 326v966q0 143 79.5 234.5t217.5 91.5h352l43 145h213l-51 -170q170 -74 170 -303v-962q0 -145 -76 -234q-82 -94 -221 -94h-359l-43 -143h-211l52 170q-166 76 -166 299zM399 424l275 907h-170q-104 0 -105 -96v-811zM569 287h179q102 0 102 96v827z" />
<glyph unicode="&#xd9;" d="M113 326v1292h286v-1235q0 -96 105 -96h244q102 0 102 96v1235h287v-1290q0 -147 -81 -237.5t-216 -90.5h-430q-135 0 -216 89.5t-81 236.5zM336 2021h350l168 -299h-195z" />
<glyph unicode="&#xda;" d="M113 326v1292h286v-1235q0 -96 105 -96h244q102 0 102 96v1235h287v-1290q0 -147 -81 -237.5t-216 -90.5h-430q-135 0 -216 89.5t-81 236.5zM397 1722l168 299h350l-323 -299h-195z" />
<glyph unicode="&#xdb;" d="M113 326v1292h286v-1235q0 -96 105 -96h244q102 0 102 96v1235h287v-1290q0 -147 -81 -237.5t-216 -90.5h-430q-135 0 -216 89.5t-81 236.5zM264 1722l228 287h290l222 -287h-248l-123 154l-121 -154h-248z" />
<glyph unicode="&#xdc;" d="M113 326v1292h286v-1235q0 -96 105 -96h244q102 0 102 96v1235h287v-1290q0 -147 -81 -237.5t-216 -90.5h-430q-135 0 -216 89.5t-81 236.5zM291 1720v250h260v-250h-260zM715 1720v250h262v-250h-262z" />
<glyph unicode="&#xdd;" d="M113 1481v137h286v-105q0 -31 13 -59l213 -475l217 481q8 23 8 53v105h287v-139q0 -61 -31 -131l-338 -752v-596h-287v596l-340 758q-28 68 -28 127zM397 1722l168 299h350l-323 -299h-195z" />
<glyph unicode="&#xde;" d="M113 0v1618h286v-328h437q137 0 219 -89t82 -230v-328q0 -139 -86 -222t-230 -83h-422v-338h-286zM399 625h355q96 0 96 104v172q0 102 -96 103h-355v-379z" />
<glyph unicode="&#xdf;" horiz-adv-x="2002" d="M90 264l229 58q0 -92 87 -93h184q70 0 86 56q4 16 4 112q0 86 -74 103l-299 59q-217 43 -217 262v215q0 115 64.5 186.5t173.5 71.5h338q115 0 179 -72.5t64 -193.5l-229 -57q0 94 -96 94h-178q-88 0 -89 -113v-43q2 -18 2 -41q0 -78 68 -92l307 -59q215 -43 215 -277 v-174q0 -266 -256 -266h-321q-117 0 -180 76q-62 71 -62 188zM1094 264l229 58q0 -92 86 -93h184q70 0 86 56q4 16 4 112q0 86 -73 103l-299 59q-217 43 -217 262v215q0 115 64.5 186.5t172.5 71.5h338q115 0 179.5 -72.5t64.5 -193.5l-230 -57q0 94 -96 94h-178 q-88 0 -88 -113v-43q2 -18 2 -41q0 -78 68 -92l307 -59q215 -43 215 -277v-174q0 -266 -256 -266h-322q-117 0 -180 76q-61 71 -61 188z" />
<glyph unicode="&#xe0;" horiz-adv-x="999" d="M90 0l299 1294h219l301 -1294h-237l-49 217h-246l-49 -217h-238zM186 1688h351l168 -299h-195zM430 446h139l-69 306z" />
<glyph unicode="&#xe1;" horiz-adv-x="999" d="M90 0l299 1294h219l301 -1294h-237l-49 217h-246l-49 -217h-238zM307 1411l168 299h350l-323 -299h-195zM430 446h139l-69 306z" />
<glyph unicode="&#xe2;" horiz-adv-x="999" d="M90 0l299 1294h219l301 -1294h-237l-49 217h-246l-49 -217h-238zM145 1401l228 287h291l221 -287h-248l-123 153l-121 -153h-248zM430 446h139l-69 306z" />
<glyph unicode="&#xe3;" horiz-adv-x="999" d="M90 0l299 1294h219l301 -1294h-237l-49 217h-246l-49 -217h-238zM131 1401v43q0 125 46 178t155 53q57 0 151 -43q98 -43 144 -43q68 0 67 86h160v-45q0 -125 -45 -178t-156 -53q-53 0 -159 41q-100 43 -134 43q-35 2 -53 -19.5t-18 -62.5h-158zM430 446h139l-69 306z " />
<glyph unicode="&#xe4;" horiz-adv-x="999" d="M90 0l299 1294h219l301 -1294h-237l-49 217h-246l-49 -217h-238zM166 1411v250h260v-250h-260zM430 446h139l-69 306zM590 1411v250h262v-250h-262z" />
<glyph unicode="&#xe5;" horiz-adv-x="999" d="M90 0l299 1294h219l301 -1294h-237l-49 217h-246l-49 -217h-238zM276 1671q0 98 66 170q68 72 166 72q96 0 162.5 -70.5t66.5 -171.5q0 -98 -65.5 -168.5t-163.5 -70.5t-165 70.5t-67 168.5zM393 1673q0 -49 33 -84t82 -35q47 0 80 35t33 84q0 47 -33 82t-80 35 q-49 0 -82 -34t-33 -83zM430 446h139l-69 306z" />
<glyph unicode="&#xe6;" horiz-adv-x="1304" d="M90 0l299 1294h823v-229h-550l71 -305l250 2v-230h-199l72 -301l358 -2v-229h-542l-49 217h-246l-49 -217h-238zM430 446h139l-69 306z" />
<glyph unicode="&#xe7;" horiz-adv-x="999" d="M90 260v774q0 115 64.5 187.5t173.5 72.5h338q115 0 179 -72.5t64 -193.5l-229 -57q0 94 -96 94h-178q-86 0 -87 -82v-676q0 -78 87 -78h188q86 0 86 93l229 -58q0 -121 -64.5 -192.5t-176.5 -71.5h-148v-92q233 -2 234 -172q0 -166 -238 -166h-156v92q61 0 125 2 q94 2 95 76q0 76 -88 76h-9h-55v2v182h-96q-123 0 -187 82q-55 69 -55 178z" />
<glyph unicode="&#xe8;" horiz-adv-x="999" d="M90 0v1294h819v-229h-590v-303h361v-230h-361v-303h590v-229h-819zM201 1688h350l168 -299h-195z" />
<glyph unicode="&#xe9;" horiz-adv-x="999" d="M90 0v1294h819v-229h-590v-303h361v-230h-361v-303h590v-229h-819zM317 1411l168 299h351l-324 -299h-195z" />
<glyph unicode="&#xea;" horiz-adv-x="999" d="M90 0v1294h819v-229h-590v-303h361v-230h-361v-303h590v-229h-819zM143 1401l230 287h289l221 -287h-248l-123 153l-121 -153h-248z" />
<glyph unicode="&#xeb;" horiz-adv-x="999" d="M90 0v1294h819v-229h-590v-303h361v-230h-361v-303h590v-229h-819zM172 1421v250h260v-250h-260zM596 1421v250h262v-250h-262z" />
<glyph unicode="&#xec;" horiz-adv-x="442" d="M-72 1688h351l167 -299h-194zM106 0v1294h230v-1294h-230z" />
<glyph unicode="&#xed;" horiz-adv-x="442" d="M-29 1411l168 299h350l-323 -299h-195zM106 0v1294h230v-1294h-230z" />
<glyph unicode="&#xee;" horiz-adv-x="442" d="M-156 1389l230 286h288l222 -286h-248l-121 153l-123 -153h-248zM106 0v1294h230v-1294h-230z" />
<glyph unicode="&#xef;" horiz-adv-x="442" d="M-111 1411v250h261v-250h-261zM106 0v1294h230v-1294h-230zM313 1411v250h262v-250h-262z" />
<glyph unicode="&#xf0;" horiz-adv-x="1009" d="M90 256v262q0 109 66.5 176.5t185.5 67.5h338v172h-70v205h70v155l229 -2v-153h72v-205h-72v-934h-577q-123 0 -189 86q-53 72 -53 170zM319 311q0 -82 78 -82h283v303h-283q-78 0 -78 -83v-138z" />
<glyph unicode="&#xf1;" horiz-adv-x="999" d="M90 0v1294h217l373 -747v747h229v-1294h-215l-375 750v-750h-229zM150 1403v43q0 125 45 179t153 54q57 0 154 -43q98 -43 143 -43q68 0 68 86h159v-45q0 -125 -45 -179t-155 -54q-55 0 -160 41q-98 41 -133 45q-72 0 -72 -84h-157z" />
<glyph unicode="&#xf2;" horiz-adv-x="999" d="M90 260v774q0 115 63.5 187.5t174.5 72.5h344q111 0 174 -72.5t63 -189.5v-770q0 -117 -63.5 -189.5t-173.5 -72.5h-344q-111 0 -174.5 72.5t-63.5 187.5zM199 1688h350l168 -299h-195zM319 307q0 -78 84 -78h195q82 0 82 78v680q0 78 -82 78h-195q-84 0 -84 -78v-680z " />
<glyph unicode="&#xf3;" horiz-adv-x="999" d="M90 260v774q0 115 63.5 187.5t174.5 72.5h344q111 0 174 -72.5t63 -189.5v-770q0 -117 -63.5 -189.5t-173.5 -72.5h-344q-111 0 -174.5 72.5t-63.5 187.5zM264 1401l168 299h350l-323 -299h-195zM319 307q0 -78 84 -78h195q82 0 82 78v680q0 78 -82 78h-195 q-84 0 -84 -78v-680z" />
<glyph unicode="&#xf4;" horiz-adv-x="999" d="M90 260v774q0 115 63.5 187.5t174.5 72.5h344q111 0 174 -72.5t63 -189.5v-770q0 -117 -63.5 -189.5t-173.5 -72.5h-344q-111 0 -174.5 72.5t-63.5 187.5zM117 1389l229 286h289l221 -286h-248l-123 153l-120 -153h-248zM319 307q0 -78 84 -78h195q82 0 82 78v680 q0 78 -82 78h-195q-84 0 -84 -78v-680z" />
<glyph unicode="&#xf5;" horiz-adv-x="999" d="M90 260v774q0 115 63.5 187.5t174.5 72.5h344q111 0 174 -72.5t63 -189.5v-770q0 -117 -63.5 -189.5t-173.5 -72.5h-344q-111 0 -174.5 72.5t-63.5 187.5zM145 1391v43q0 125 45.5 179t153.5 54q57 0 154 -43q98 -43 143 -43q68 0 68 86h159v-45q0 -125 -45 -179 t-155 -54q-55 0 -160 41q-98 41 -133 45q-72 0 -72 -84h-158zM319 307q0 -78 84 -78h195q82 0 82 78v680q0 78 -82 78h-195q-84 0 -84 -78v-680z" />
<glyph unicode="&#xf6;" horiz-adv-x="999" d="M90 260v774q0 115 63.5 187.5t174.5 72.5h344q111 0 174 -72.5t63 -189.5v-770q0 -117 -63.5 -189.5t-173.5 -72.5h-344q-111 0 -174.5 72.5t-63.5 187.5zM166 1411v250h260v-250h-260zM319 307q0 -78 84 -78h195q82 0 82 78v680q0 78 -82 78h-195q-84 0 -84 -78v-680z M590 1411v250h262v-250h-262z" />
<glyph unicode="&#xf7;" horiz-adv-x="1126" d="M133 666v286h860v-286h-860zM420 238v286h287v-286h-287zM420 1092v286h287v-286h-287z" />
<glyph unicode="&#xf8;" horiz-adv-x="999" d="M90 260v774q0 115 63.5 187.5t174.5 72.5h280l37 117h170l-43 -137q137 -57 137 -242v-770q0 -117 -63.5 -189.5t-173.5 -72.5h-287l-35 -115h-168l41 135q-133 62 -133 240zM319 340l220 725h-136q-84 0 -84 -78v-647zM455 229h143q82 0 82 78v662z" />
<glyph unicode="&#xf9;" horiz-adv-x="999" d="M90 260v1034h229v-987q0 -78 84 -78h195q82 0 82 78v987h229v-1032q0 -119 -64.5 -190.5t-172.5 -71.5h-344q-109 0 -173.5 71.5t-64.5 188.5zM221 1688h350l168 -299h-194z" />
<glyph unicode="&#xfa;" horiz-adv-x="999" d="M90 260v1034h229v-987q0 -78 84 -78h195q82 0 82 78v987h229v-1032q0 -119 -64.5 -190.5t-172.5 -71.5h-344q-109 0 -173.5 71.5t-64.5 188.5zM297 1401l168 299h350l-323 -299h-195z" />
<glyph unicode="&#xfb;" horiz-adv-x="999" d="M90 260v1034h229v-987q0 -78 84 -78h195q82 0 82 78v987h229v-1032q0 -119 -64.5 -190.5t-172.5 -71.5h-344q-109 0 -173.5 71.5t-64.5 188.5zM127 1401l229 287h289l221 -287h-248l-122 153l-121 -153h-248z" />
<glyph unicode="&#xfc;" horiz-adv-x="999" d="M90 260v1034h229v-987q0 -78 84 -78h195q82 0 82 78v987h229v-1032q0 -119 -64.5 -190.5t-172.5 -71.5h-344q-109 0 -173.5 71.5t-64.5 188.5zM156 1411v250h260v-250h-260zM580 1411v250h262v-250h-262z" />
<glyph unicode="&#xfd;" horiz-adv-x="999" d="M90 1184v110h229v-84q0 -23 11 -47l170 -381l172 385q8 18 8 43v84h229v-110q0 -49 -24 -107l-271 -600v-477h-229v477l-272 606q-23 56 -23 101zM285 1393l168 299h350l-324 -299h-194z" />
<glyph unicode="&#xfe;" horiz-adv-x="999" d="M90 0v1294h229v-262h349q111 0 176 -70.5t65 -185.5v-262q0 -111 -69.5 -177.5t-182.5 -66.5h-338v-270h-229zM319 500h283q78 0 78 84v137q0 82 -78 82h-283v-303z" />
<glyph unicode="&#xff;" horiz-adv-x="999" d="M90 1184v110h229v-84q0 -23 11 -47l170 -381l172 385q8 18 8 43v84h229v-110q0 -49 -24 -107l-271 -600v-477h-229v477l-272 606q-23 56 -23 101zM162 1421v250h260v-250h-260zM586 1421v250h262v-250h-262z" />
<glyph unicode="&#x152;" horiz-adv-x="1978" d="M113 326v966q0 143 79.5 234.5t217.5 91.5h1464v-287h-737v-379h450v-286h-450v-379h739v-287h-1466q-137 0 -217 91.5t-80 234.5zM399 383q0 -96 105 -96h244q102 0 102 96v852q0 96 -102 96h-244q-104 0 -105 -96v-852z" />
<glyph unicode="&#x153;" horiz-adv-x="1591" d="M90 260v774q0 115 63.5 187.5t174.5 72.5h1171v-229h-590v-303h361v-230h-361v-303h592v-229h-1173q-111 0 -174.5 72.5t-63.5 187.5zM319 307q0 -78 84 -78h195q82 0 82 78v680q0 78 -82 78h-195q-84 0 -84 -78v-680z" />
<glyph unicode="&#x178;" d="M113 1481v137h286v-105q0 -31 13 -59l213 -475l217 481q8 23 8 53v105h287v-139q0 -61 -31 -131l-338 -752v-596h-287v596l-340 758q-28 68 -28 127zM291 1720v250h260v-250h-260zM715 1720v250h262v-250h-262z" />
<glyph unicode="&#x2c6;" d="M285 1722l229 287h289l221 -287h-248l-121 154l-123 -154h-247z" />
<glyph unicode="&#x2dc;" d="M297 1722l2 43q0 125 45 179.5t154 54.5q55 0 151 -43q98 -43 144 -43q68 0 67 86h162l-2 -45q0 -127 -45 -180.5t-156 -53.5q-53 0 -157 41q-98 41 -136 45q-72 0 -71 -84h-158z" />
<glyph unicode="&#x2013;" horiz-adv-x="995" d="M68 666v286h860v-286h-860z" />
<glyph unicode="&#x2014;" horiz-adv-x="1159" d="M68 666v286h1024v-286h-1024z" />
<glyph unicode="&#x2018;" horiz-adv-x="454" d="M113 1389v229l147 229h82v-458h-229z" />
<glyph unicode="&#x2019;" horiz-adv-x="454" d="M113 1389v458h229v-229l-147 -229h-82z" />
<glyph unicode="&#x201a;" horiz-adv-x="454" d="M113 209h229v-229l-147 -230h-82v459z" />
<glyph unicode="&#x201c;" horiz-adv-x="817" d="M113 1389v229l147 229h82v-458h-229zM475 1389v229l148 229h82v-458h-230z" />
<glyph unicode="&#x201d;" horiz-adv-x="817" d="M113 1389v458h229v-229l-147 -229h-82zM475 1389v458h230v-229l-148 -229h-82z" />
<glyph unicode="&#x201e;" horiz-adv-x="817" d="M113 209h229v-229l-147 -230h-82v459zM475 209h230v-229l-148 -230h-82v459z" />
<glyph unicode="&#x2022;" horiz-adv-x="659" d="M113 809q0 90 63.5 153.5t153.5 63.5t153.5 -63.5t63.5 -153.5t-63.5 -153.5t-153.5 -63.5t-153.5 63.5t-63.5 153.5z" />
<glyph unicode="&#x2026;" horiz-adv-x="1454" d="M113 0v287h286v-287h-286zM584 0v287h286v-287h-286zM1055 0v287h286v-287h-286z" />
<glyph unicode="&#x2039;" horiz-adv-x="745" d="M68 662l278 462h332l-277 -462l277 -461h-332z" />
<glyph unicode="&#x203a;" horiz-adv-x="745" d="M68 201l276 461l-276 462h331l279 -462l-279 -461h-331z" />
<glyph unicode="&#x20ac;" horiz-adv-x="1269" d="M61 520v185h134v163h-134v185h134v239q0 143 80.5 234.5t216.5 91.5h665l-131 -287h-438q-106 0 -107 -102v-176h420l-84 -185h-336v-163h262l-84 -185h-178v-135q0 -98 107 -98h174q113 0 108 114l287 -71q0 -145 -78 -236q-80 -94 -225 -94h-358q-141 0 -221 89 t-80 237v194h-134z" />
<glyph unicode="&#x2122;" horiz-adv-x="1099" d="M113 1503v115h409v-115h-147v-532h-115v532h-147zM578 971v647h114l90 -236l90 236h115v-647h-115v325l-90 -231l-90 231v-325h-114z" />
<glyph unicode="&#xe000;" horiz-adv-x="1295" d="M0 1295h1295v-1295h-1295v1295z" />
<glyph unicode="&#xfb01;" horiz-adv-x="1409" d="M90 0v1294h819v-229h-590v-303h361v-230h-361v-532h-229zM1090 0v1294h229v-1294h-229z" />
<glyph unicode="&#xfb02;" horiz-adv-x="1998" d="M90 0v1294h819v-229h-590v-303h361v-230h-361v-532h-229zM1090 0v1294h229v-1065h590v-229h-819z" />
<glyph unicode="&#xfb03;" horiz-adv-x="2408" d="M90 0v1294h819v-229h-590v-303h361v-230h-361v-532h-229zM1090 0v1294h819v-229h-590v-303h360v-230h-360v-532h-229zM2089 0v1294h229v-1294h-229z" />
<glyph unicode="&#xfb04;" horiz-adv-x="2998" d="M90 0v1294h819v-229h-590v-303h361v-230h-361v-532h-229zM1090 0v1294h819v-229h-590v-303h360v-230h-360v-532h-229zM2089 0v1294h229v-1065h590v-229h-819z" />
</font>
</defs>
</svg>
